<svg xmlns="http://www.w3.org/2000/svg" style="display: none;"><symbol id="secure" viewBox="0 0 24 24"><title>secure</title><path xmlns="http://www.w3.org/2000/svg" d="m18 24c-.066 0-.132-.013-.194-.039-.238-.101-5.806-2.507-5.806-7.425v-4.179c0-.215.137-.405.34-.474l5.5-1.857c.104-.035.217-.035.32 0l5.5 1.857c.203.068.34.259.34.474v4.179c0 4.918-5.568 7.324-5.806 7.425-.062.026-.128.039-.194.039zm-5-11.283v3.819c0 3.784 4.055 5.958 5 6.413.944-.456 5-2.639 5-6.413v-3.819l-5-1.689z" fill="#db2d2d" data-original="#000000" style=""/><path xmlns="http://www.w3.org/2000/svg" d="m17.5 19c-.009 0-.019 0-.027-.001-.143-.008-.274-.075-.363-.187l-2-2.5c-.172-.216-.138-.53.078-.703.217-.17.53-.136.703.078l1.65 2.063 3.105-3.104c.195-.195.512-.195.707 0s.195.512 0 .707l-3.5 3.5c-.093.094-.221.147-.353.147z" fill="#db2d2d" data-original="#000000" style=""/><path xmlns="http://www.w3.org/2000/svg" d="m18.5 8h-15c-1.93 0-3.5-1.57-3.5-3.5s1.57-3.5 3.5-3.5h15c1.93 0 3.5 1.57 3.5 3.5s-1.57 3.5-3.5 3.5zm-15-6c-1.379 0-2.5 1.121-2.5 2.5s1.121 2.5 2.5 2.5h15c1.379 0 2.5-1.121 2.5-2.5s-1.121-2.5-2.5-2.5z" fill="#db2d2d" data-original="#000000" style=""/><path xmlns="http://www.w3.org/2000/svg" d="m4.5 6c-.827 0-1.5-.673-1.5-1.5s.673-1.5 1.5-1.5 1.5.673 1.5 1.5-.673 1.5-1.5 1.5zm0-2c-.275 0-.5.225-.5.5s.225.5.5.5.5-.225.5-.5-.225-.5-.5-.5z" fill="#db2d2d" data-original="#000000" style=""/><path xmlns="http://www.w3.org/2000/svg" d="m9.5 6c-.827 0-1.5-.673-1.5-1.5s.673-1.5 1.5-1.5 1.5.673 1.5 1.5-.673 1.5-1.5 1.5zm0-2c-.275 0-.5.225-.5.5s.225.5.5.5.5-.225.5-.5-.225-.5-.5-.5z" fill="#db2d2d" data-original="#000000" style=""/><path xmlns="http://www.w3.org/2000/svg" d="m9.5 14h-6c-1.93 0-3.5-1.57-3.5-3.5 0-.934.364-1.812 1.026-2.474s1.54-1.026 2.474-1.026h15c.782 0 1.519.251 2.128.726.218.17.257.484.087.702-.17.217-.484.256-.702.087-.432-.337-.955-.515-1.513-.515h-15c-.666 0-1.294.261-1.767.733s-.733 1.101-.733 1.767c0 1.379 1.121 2.5 2.5 2.5h6c.276 0 .5.224.5.5s-.224.5-.5.5z" fill="#db2d2d" data-original="#000000" style=""/><path xmlns="http://www.w3.org/2000/svg" d="m4.5 12c-.827 0-1.5-.673-1.5-1.5s.673-1.5 1.5-1.5 1.5.673 1.5 1.5-.673 1.5-1.5 1.5zm0-2c-.275 0-.5.225-.5.5s.225.5.5.5.5-.225.5-.5-.225-.5-.5-.5z" fill="#db2d2d" data-original="#000000" style=""/><path xmlns="http://www.w3.org/2000/svg" d="m9.5 12c-.827 0-1.5-.673-1.5-1.5s.673-1.5 1.5-1.5 1.5.673 1.5 1.5-.673 1.5-1.5 1.5zm0-2c-.275 0-.5.225-.5.5s.225.5.5.5.5-.225.5-.5-.225-.5-.5-.5z" fill="#db2d2d" data-original="#000000" style=""/><path xmlns="http://www.w3.org/2000/svg" d="m9.5 20h-6c-1.93 0-3.5-1.57-3.5-3.5 0-.934.364-1.812 1.026-2.474s1.54-1.026 2.474-1.026h6c.276 0 .5.224.5.5s-.224.5-.5.5h-6c-.666 0-1.294.261-1.767.733s-.733 1.101-.733 1.767c0 1.379 1.121 2.5 2.5 2.5h6c.276 0 .5.224.5.5s-.224.5-.5.5z" fill="#db2d2d" data-original="#000000" style=""/><path xmlns="http://www.w3.org/2000/svg" d="m4.5 18c-.827 0-1.5-.673-1.5-1.5s.673-1.5 1.5-1.5 1.5.673 1.5 1.5-.673 1.5-1.5 1.5zm0-2c-.275 0-.5.225-.5.5s.225.5.5.5.5-.225.5-.5-.225-.5-.5-.5z" fill="#db2d2d" data-original="#000000" style=""/><path xmlns="http://www.w3.org/2000/svg" d="m9.5 18c-.827 0-1.5-.673-1.5-1.5s.673-1.5 1.5-1.5 1.5.673 1.5 1.5-.673 1.5-1.5 1.5zm0-2c-.275 0-.5.225-.5.5s.225.5.5.5.5-.225.5-.5-.225-.5-.5-.5z" fill="#db2d2d" data-original="#000000" style=""/></symbol><symbol id="sharing" viewBox="0 0 512 512"><title>sharing</title><path d="m208 120h21.754l-4 16h-9.754v16h80v-16h-9.754l-4-16h21.754a24.028 24.028 0 0 0 24-24v-56a24.028 24.028 0 0 0 -24-24h-96a24.028 24.028 0 0 0 -24 24v56a24.028 24.028 0 0 0 24 24zm61.754 16h-27.508l4-16h19.508zm-69.754-96a8.009 8.009 0 0 1 8-8h96a8.009 8.009 0 0 1 8 8v56a8.009 8.009 0 0 1 -8 8h-96a8.009 8.009 0 0 1 -8-8z" fill="#db2d2d" data-original="#000000" style="" class=""/><path d="m128 152v-16h-9.754l-4-16h21.754a24.028 24.028 0 0 0 24-24v-56a24.028 24.028 0 0 0 -24-24h-96a24.028 24.028 0 0 0 -24 24h16a8.009 8.009 0 0 1 8-8h96a8.009 8.009 0 0 1 8 8v56a8.009 8.009 0 0 1 -8 8h-96a8.009 8.009 0 0 1 -8-8v-40h-16v40a24.028 24.028 0 0 0 24 24h21.754l-4 16h-9.754v16zm-53.754-16 4-16h19.508l4 16z" fill="#db2d2d" data-original="#000000" style="" class=""/><path d="m496 72v-32a24.028 24.028 0 0 0 -24-24h-96a24.028 24.028 0 0 0 -24 24v56a24.028 24.028 0 0 0 24 24h21.754l-4 16h-9.754v16h80v-16h-9.754l-4-16h21.754a24.028 24.028 0 0 0 24-24v-8h-16v8a8.009 8.009 0 0 1 -8 8h-96a8.009 8.009 0 0 1 -8-8v-56a8.009 8.009 0 0 1 8-8h96a8.009 8.009 0 0 1 8 8v32zm-62.246 48 4 16h-27.508l4-16z" fill="#db2d2d" data-original="#000000" style="" class=""/><path d="m368 248h-224a32.036 32.036 0 0 0 -32 32v8h16v-8a16.019 16.019 0 0 1 16-16h224a16.019 16.019 0 0 1 16 16v112h-256v-88h-16v112a32.036 32.036 0 0 0 32 32h68.9l-10.667 32h-18.233v16h144v-16h-18.233l-10.667-32h68.9a32.036 32.036 0 0 0 32-32v-136a32.036 32.036 0 0 0 -32-32zm-75.1 232h-73.8l10.666-32h52.468zm75.1-48h-224a16.019 16.019 0 0 1 -16-16v-8h256v8a16.019 16.019 0 0 1 -16 16z" fill="#db2d2d" data-original="#000000" style="" class=""/><path d="m416 192h-152v-24h-16v24h-152v-24h-16v32a8 8 0 0 0 8 8h160v24h16v-24h160a8 8 0 0 0 8-8v-32h-16z" fill="#db2d2d" data-original="#000000" style="" class=""/><path d="m48 72h16v16h-16z" fill="#db2d2d" data-original="#000000" style="" class=""/><path d="m80 64h16v24h-16z" fill="#db2d2d" data-original="#000000" style="" class=""/><path d="m112 48h16v40h-16z" fill="#db2d2d" data-original="#000000" style="" class=""/><path d="m216 72h16v16h-16z" fill="#db2d2d" data-original="#000000" style="" class=""/><path d="m248 64h16v24h-16z" fill="#db2d2d" data-original="#000000" style="" class=""/><path d="m280 48h16v40h-16z" fill="#db2d2d" data-original="#000000" style="" class=""/><path d="m384 72h16v16h-16z" fill="#db2d2d" data-original="#000000" style="" class=""/><path d="m416 64h16v24h-16z" fill="#db2d2d" data-original="#000000" style="" class=""/><path d="m448 48h16v40h-16z" fill="#db2d2d" data-original="#000000" style="" class=""/><path d="m200 328h-32a8 8 0 0 0 -8 8v24h-16v16h224v-16h-16v-72a8 8 0 0 0 -8-8h-32a8 8 0 0 0 -8 8v72h-24v-48a8 8 0 0 0 -8-8h-32a8 8 0 0 0 -8 8v48h-24v-24a8 8 0 0 0 -8-8zm-24 32v-16h16v16zm144-64h16v64h-16zm-72 24h16v40h-16z" fill="#db2d2d" data-original="#000000" style="" class=""/></symbol><symbol id="to-do-list" viewBox="0 0 512 512"><title>to-do-list</title><path d="m143.194 218.977 46.751-56.244c2.648-3.186 2.212-7.914-.974-10.562-3.184-2.647-7.914-2.211-10.562.974l-40.074 48.211-8.759-14.228c-2.171-3.527-6.79-4.628-10.319-2.455-3.527 2.172-4.626 6.792-2.455 10.318l14.236 23.123c2.692 4.37 8.878 4.807 12.156.863z" fill="#db2d2d" data-original="#000000" style="" class=""/><path d="m116.804 293.991 14.236 23.123c2.69 4.37 8.876 4.807 12.154.862l46.751-56.244c2.648-3.186 2.212-7.914-.974-10.562-3.184-2.647-7.914-2.212-10.562.974l-40.074 48.211-8.759-14.228c-2.171-3.527-6.79-4.628-10.319-2.455-3.526 2.173-4.625 6.793-2.453 10.319z" fill="#db2d2d" data-original="#000000" style="" class=""/><path d="m116.804 393.658 14.236 23.123c2.69 4.37 8.876 4.807 12.154.862l46.751-56.244c2.648-3.186 2.212-7.914-.974-10.562-3.184-2.647-7.914-2.212-10.562.974l-40.074 48.211-8.759-14.228c-2.171-3.527-6.79-4.627-10.319-2.455-3.526 2.173-4.625 6.793-2.453 10.319z" fill="#db2d2d" data-original="#000000" style="" class=""/><path d="m448.5 423.405c-4.142 0-7.5 3.357-7.5 7.5v54.595c0 6.341-5.159 11.5-11.5 11.5h-347c-6.341 0-11.5-5.159-11.5-11.5v-328.691c0-4.143-3.358-7.5-7.5-7.5s-7.5 3.357-7.5 7.5v328.691c0 14.612 11.888 26.5 26.5 26.5h347c14.612 0 26.5-11.888 26.5-26.5v-54.595c0-4.142-3.358-7.5-7.5-7.5z" fill="#db2d2d" data-original="#000000" style="" class=""/><path d="m429.5 57.791h-36.688v-30.991c0-14.777-12.022-26.8-26.8-26.8s-26.8 12.022-26.8 26.8v30.991h-56.412v-30.991c0-14.778-12.023-26.8-26.8-26.8s-26.8 12.022-26.8 26.8v30.991h-56.413v-30.991c0-14.777-12.022-26.8-26.8-26.8-14.777 0-26.8 12.022-26.8 26.8v30.991h-36.687c-14.612 0-26.5 11.888-26.5 26.5v37.518c0 4.143 3.358 7.5 7.5 7.5s7.5-3.357 7.5-7.5v-37.518c0-6.341 5.159-11.5 11.5-11.5h36.687v11.909c0 14.777 12.022 26.8 26.8 26.8s26.8-12.022 26.8-26.8v-11.909h56.413v11.909c0 14.777 12.022 26.8 26.8 26.8s26.8-12.022 26.8-26.8v-11.909h56.413v11.909c0 14.777 12.022 26.8 26.8 26.8 14.777 0 26.8-12.022 26.8-26.8v-11.909h36.687c6.341 0 11.5 5.159 11.5 11.5v311.614c0 4.143 3.358 7.5 7.5 7.5s7.5-3.357 7.5-7.5v-311.614c0-14.612-11.888-26.5-26.5-26.5zm-271.712 26.909c0 6.507-5.293 11.8-11.8 11.8-6.506 0-11.8-5.293-11.8-11.8 0-15.987 0-52.896 0-57.9 0-6.507 5.293-11.8 11.8-11.8s11.8 5.293 11.8 11.8zm110.012 0c0 6.507-5.293 11.8-11.8 11.8s-11.8-5.293-11.8-11.8c0-15.987 0-52.896 0-57.9 0-6.507 5.293-11.8 11.8-11.8s11.8 5.293 11.8 11.8zm110.013 0c0 6.507-5.293 11.8-11.8 11.8s-11.8-5.293-11.8-11.8c0-15.987 0-52.896 0-57.9 0-6.507 5.293-11.8 11.8-11.8 6.506 0 11.8 5.293 11.8 11.8z" fill="#db2d2d" data-original="#000000" style="" class=""/><path d="m221.739 225.183h158c12.958 0 23.5-10.542 23.5-23.5s-10.542-23.5-23.5-23.5h-158c-12.958 0-23.5 10.542-23.5 23.5s10.542 23.5 23.5 23.5zm0-32h158c4.687 0 8.5 3.813 8.5 8.5s-3.813 8.5-8.5 8.5h-158c-4.687 0-8.5-3.813-8.5-8.5s3.813-8.5 8.5-8.5z" fill="#db2d2d" data-original="#000000" style="" class=""/><path d="m221.739 324.396h158c12.958 0 23.5-10.542 23.5-23.5s-10.542-23.5-23.5-23.5h-158c-12.958 0-23.5 10.542-23.5 23.5s10.542 23.5 23.5 23.5zm0-32h158c4.687 0 8.5 3.813 8.5 8.5s-3.813 8.5-8.5 8.5h-158c-4.687 0-8.5-3.813-8.5-8.5s3.813-8.5 8.5-8.5z" fill="#db2d2d" data-original="#000000" style="" class=""/><path d="m221.739 423.608h158c12.958 0 23.5-10.542 23.5-23.5s-10.542-23.5-23.5-23.5h-158c-12.958 0-23.5 10.542-23.5 23.5s10.542 23.5 23.5 23.5zm0-32h158c4.687 0 8.5 3.813 8.5 8.5s-3.813 8.5-8.5 8.5h-158c-4.687 0-8.5-3.813-8.5-8.5s3.813-8.5 8.5-8.5z" fill="#db2d2d" data-original="#000000" style="" class=""/></symbol></svg>